<svg xmlns="http://www.w3.org/2000/svg" xmlns:xlink="http://www.w3.org/1999/xlink" id="Layer_1" data-name="Layer 1" viewBox="0 0 806 252"><defs><style>      .cls-1 {        fill: url(#linear-gradient);      }      .cls-1, .cls-2 {        stroke-width: 0px;      }      .cls-2 {        fill: #fff;      }    </style><linearGradient id="linear-gradient" x1="9.76" y1="85.51" x2="170.82" y2="184.22" gradientUnits="userSpaceOnUse"><stop offset="0" stop-color="#00a9ce" stop-opacity=".99"></stop><stop offset=".51" stop-color="#330072" stop-opacity=".99"></stop><stop offset="1" stop-color="#ae2573" stop-opacity=".99"></stop></linearGradient></defs><g><path class="cls-2" d="m254.66,107.98c2.58-2.7,5.61-4.81,9.09-6.33,3.48-1.51,7.23-2.27,11.24-2.27,2.54,0,5.06.41,7.56,1.23,2.5.82,4.96,2.03,7.37,3.62,2.41,1.6,4.81,3.59,7.19,5.96l8.85-9.22c-2.05-2.87-4.69-5.43-7.92-7.68-3.24-2.25-6.84-4.01-10.81-5.28-3.98-1.27-8.05-1.9-12.23-1.9-5.9,0-11.39,1.11-16.47,3.32-5.08,2.21-9.54,5.33-13.39,9.34-3.85,4.01-6.86,8.66-9.03,13.95-2.17,5.28-3.26,11-3.26,17.14,0,6.47,1,12.41,3.01,17.82,2.01,5.41,4.86,10.1,8.54,14.07,3.69,3.98,8.03,7.03,13.03,9.16,5,2.13,10.48,3.2,16.46,3.2,4.01,0,8.01-.51,11.98-1.54,3.97-1.02,7.58-2.44,10.81-4.24,3.23-1.8,5.79-3.81,7.68-6.02l-6.63-10.81c-1.89,1.88-3.98,3.52-6.27,4.91-2.29,1.39-4.75,2.46-7.37,3.2-2.63.74-5.29,1.11-7.99,1.11-4.42,0-8.46-.72-12.1-2.15-3.64-1.43-6.78-3.5-9.4-6.2-2.62-2.7-4.65-5.96-6.08-9.77s-2.15-8.05-2.15-12.72c0-4.42.74-8.5,2.21-12.23,1.48-3.73,3.5-6.94,6.08-9.65Z"></path><path class="cls-2" d="m362.33,111.36c-4.96-2.91-10.55-4.36-16.77-4.36s-11.94,1.46-16.89,4.36c-4.96,2.91-8.87,6.88-11.74,11.92-2.87,5.04-4.3,10.8-4.3,17.27s1.43,12.23,4.3,17.27c2.87,5.04,6.78,9.01,11.74,11.92,4.95,2.91,10.59,4.36,16.89,4.36s11.82-1.45,16.77-4.36c4.96-2.91,8.87-6.88,11.74-11.92,2.87-5.04,4.3-10.79,4.3-17.27s-1.44-12.23-4.3-17.27c-2.87-5.04-6.78-9.01-11.74-11.92Zm.68,40.43c-1.72,3.32-4.1,5.94-7.13,7.86-3.03,1.93-6.47,2.89-10.32,2.89s-7.31-.96-10.38-2.89c-3.07-1.92-5.47-4.55-7.19-7.86-1.72-3.32-2.54-7.07-2.46-11.24-.08-4.18.74-7.93,2.46-11.24,1.72-3.32,4.12-5.94,7.19-7.87,3.07-1.92,6.53-2.89,10.38-2.89s7.29.94,10.32,2.83c3.03,1.88,5.41,4.49,7.13,7.8s2.54,7.11,2.46,11.37c.08,4.18-.74,7.93-2.46,11.24Z"></path><path class="cls-2" d="m441.8,117.13c-.83-1.05-1.81-2.05-2.95-3.01-1.56-1.31-3.32-2.52-5.29-3.63-1.96-1.11-4.1-1.97-6.39-2.58-2.3-.61-4.67-.92-7.13-.92-5.98,0-11.37,1.46-16.16,4.36-4.79,2.91-8.56,6.88-11.31,11.92-2.75,5.04-4.12,10.8-4.12,17.27s1.39,12.23,4.18,17.27c2.78,5.04,6.57,9.01,11.37,11.92,4.79,2.91,10.26,4.36,16.4,4.36,3.52,0,6.96-.74,10.33-2.21,3.36-1.47,6.16-3.38,8.42-5.71,1.1-1.14,1.98-2.31,2.64-3.51v7.75c0,4.26-.78,7.82-2.34,10.69-1.56,2.87-3.85,5.04-6.88,6.51-3.03,1.47-6.8,2.21-11.31,2.21-2.38,0-4.79-.27-7.25-.8-2.46-.53-4.79-1.27-7.01-2.21-2.21-.94-4.14-2.03-5.77-3.26l-4.67,9.83c2.78,2.29,6.45,4.16,11,5.59,4.55,1.43,9.11,2.15,13.7,2.15,5.16,0,9.79-.72,13.88-2.15,4.09-1.43,7.58-3.52,10.45-6.27,2.87-2.75,5.06-6.1,6.57-10.08,1.51-3.98,2.27-8.54,2.27-13.7v-60.58h-12.66v8.78Zm-9.34,42.46c-3.11,1.88-6.68,2.83-10.69,2.83s-7.44-.94-10.51-2.83c-3.07-1.88-5.49-4.49-7.25-7.8-1.76-3.32-2.64-7.07-2.64-11.24s.88-7.93,2.64-11.24c1.76-3.32,4.18-5.94,7.25-7.87,3.07-1.92,6.57-2.89,10.51-2.89s7.56.94,10.63,2.83c3.07,1.88,5.49,4.49,7.25,7.8s2.64,7.11,2.64,11.37-.86,8.03-2.58,11.31c-1.72,3.28-4.14,5.86-7.25,7.74Z"></path><path class="cls-2" d="m524.41,132.19c-2.46-2.05-5.45-3.83-8.97-5.35-3.52-1.51-7.54-2.76-12.04-3.75-3.19-.65-5.94-1.41-8.23-2.27-2.3-.86-4.12-1.84-5.47-2.95-1.35-1.11-2.36-2.37-3.01-3.81-.65-1.43-.98-3.01-.98-4.73,0-2.38.67-4.44,2.03-6.21,1.35-1.76,3.21-3.13,5.59-4.12,2.37-.98,5.16-1.48,8.35-1.48,2.78,0,5.41.47,7.87,1.41,2.46.94,4.71,2.34,6.76,4.18,2.05,1.84,3.89,4.12,5.53,6.82l9.34-9.22c-1.89-3.28-4.26-6.04-7.13-8.29-2.87-2.25-6.15-3.95-9.83-5.1-3.69-1.15-7.74-1.72-12.17-1.72-4.18,0-8.07.59-11.67,1.78-3.61,1.19-6.74,2.87-9.4,5.04-2.66,2.17-4.75,4.73-6.27,7.68-1.52,2.95-2.27,6.14-2.27,9.58s.53,6.7,1.6,9.52c1.06,2.83,2.7,5.35,4.92,7.56,2.21,2.21,4.95,4.06,8.23,5.53,3.28,1.48,7.13,2.66,11.55,3.56,2.78.49,5.24,1.09,7.37,1.78,2.13.7,4,1.49,5.59,2.4,1.6.9,2.91,1.89,3.93,2.95,1.03,1.07,1.78,2.25,2.27,3.56.49,1.31.74,2.7.74,4.18,0,2.21-.74,4.18-2.21,5.9-1.48,1.72-3.49,3.07-6.02,4.06-2.54.98-5.37,1.47-8.48,1.47-5.08,0-9.46-1.11-13.15-3.32-3.69-2.21-7.54-6.19-11.55-11.92l-9.09,10.44c2.54,3.69,5.43,6.78,8.66,9.28,3.24,2.5,6.84,4.36,10.81,5.59,3.97,1.23,8.3,1.84,12.97,1.84,6.47,0,12.04-1.09,16.71-3.26,4.67-2.17,8.27-5.26,10.81-9.28,2.54-4.01,3.81-8.76,3.81-14.25,0-2.95-.64-5.69-1.9-8.23-1.27-2.54-3.13-4.83-5.59-6.88Z"></path><polygon class="cls-2" points="565.56 91.88 552.9 91.88 552.9 108.35 539.5 108.35 539.5 120.64 552.9 120.64 552.9 172.87 565.56 172.87 565.56 120.64 580.55 120.64 580.55 108.35 565.56 108.35 565.56 91.88"></polygon><path class="cls-2" d="m638.73,118.2c-1.3-2.1-2.91-3.97-4.85-5.61-2.09-1.76-4.53-3.13-7.31-4.12-2.79-.98-5.86-1.48-9.22-1.48-5.65,0-10.75,1.43-15.3,4.3-4.55,2.87-8.15,6.82-10.81,11.86-2.66,5.04-3.99,10.79-3.99,17.26s1.31,12.13,3.93,17.2c2.62,5.08,6.12,9.09,10.51,12.04,4.38,2.95,9.23,4.42,14.56,4.42,3.11,0,6.08-.49,8.91-1.48,2.83-.98,5.41-2.29,7.74-3.93,2.34-1.64,4.26-3.5,5.77-5.59.02-.03.04-.06.06-.09v9.86h12.78v-64.51h-12.78v9.85Zm-2.03,33.59c-1.68,3.32-3.99,5.92-6.94,7.8-2.95,1.88-6.35,2.83-10.2,2.83s-7.11-.94-10.02-2.83c-2.91-1.88-5.2-4.49-6.88-7.8-1.68-3.32-2.52-7.11-2.52-11.37s.84-7.91,2.52-11.18c1.68-3.28,3.97-5.86,6.88-7.74,2.91-1.88,6.25-2.83,10.02-2.83s7.25.94,10.2,2.83c2.95,1.89,5.26,4.47,6.94,7.74,1.68,3.28,2.52,7,2.52,11.18s-.84,8.05-2.52,11.37Z"></path><path class="cls-2" d="m687.61,121.32c3.07-1.92,6.58-2.89,10.51-2.89,2.13,0,4.34.45,6.63,1.35,2.29.9,4.47,2.13,6.51,3.69,2.05,1.56,3.73,3.28,5.04,5.16l7-8.6c-2.46-4.01-6.04-7.19-10.75-9.52-4.71-2.34-9.93-3.5-15.67-3.5s-11.33,1.48-16.04,4.42-8.44,6.96-11.18,12.04c-2.75,5.08-4.12,10.77-4.12,17.08s1.37,12,4.12,17.08c2.74,5.08,6.47,9.09,11.18,12.04s10.06,4.42,16.04,4.42c5.24,0,10.3-1.19,15.17-3.56,4.87-2.37,8.62-5.41,11.24-9.09l-7-8.6c-1.72,2.13-3.56,3.93-5.53,5.41-1.97,1.47-3.99,2.58-6.08,3.32-2.09.74-4.24,1.11-6.45,1.11-3.77,0-7.21-.98-10.32-2.95-3.11-1.97-5.61-4.61-7.5-7.93-1.89-3.32-2.82-7.07-2.82-11.24s.9-7.95,2.7-11.31c1.8-3.36,4.24-6,7.31-7.93Z"></path><polygon class="cls-2" points="778.78 172.87 795 172.87 763.85 136.75 794.14 108.35 777.06 108.35 747.93 137.24 747.93 81.93 735.28 81.93 735.28 172.87 747.93 172.87 747.93 151.68 754.97 145.08 778.78 172.87"></polygon></g><g><path class="cls-1" d="m44.31,217.31c6.18,3.49,16.76,5.69,27.8,5.69,42.51,0,94.68-30.11,115.93-66.93,5.67-9.83,9.02-20.35,9.02-27.61,0-7.27-3.34-17.8-9.02-27.65-21.25-36.81-73.42-66.93-115.93-66.92-10.71,0-19.83,1.91-27.13,5.37-7.5,4.53-14.54,11.96-20.51,22.3-21.25,36.81-21.25,97.04,0,133.85,5.79,10.03,13.41,18.26,19.84,21.9Z"></path><path class="cls-2" d="m97.05,192.14c-6.63,0-12.03-5.4-12.03-12.03v-3.74c-4.65-1.17-9.07-3-13.19-5.47l-2.65,2.64c-4.55,4.55-12.47,4.55-17.01,0-2.27-2.27-3.52-5.29-3.52-8.51s1.25-6.24,3.52-8.51l2.64-2.64c-2.47-4.12-4.3-8.54-5.47-13.19h-3.74c-6.63,0-12.03-5.4-12.03-12.03s5.4-12.03,12.03-12.03h3.74c1.17-4.65,3-9.07,5.47-13.19l-2.65-2.64c-2.27-2.27-3.52-5.29-3.52-8.51s1.25-6.24,3.52-8.51c4.54-4.54,12.47-4.55,17.01,0l2.65,2.64c4.12-2.47,8.54-4.3,13.19-5.47v-3.74c0-6.63,5.4-12.03,12.03-12.03s12.03,5.4,12.03,12.03v3.79c4.65,1.16,9.07,2.97,13.18,5.42l2.65-2.65c4.55-4.55,12.48-4.54,17.01,0,2.27,2.27,3.52,5.29,3.52,8.51s-1.25,6.23-3.52,8.51l-2.63,2.63c2.47,4.12,4.3,8.55,5.46,13.2h3.73c6.63,0,12.03,5.4,12.03,12.03s-5.4,12.03-12.03,12.03h-39.41v7.39c0,6.63-5.4,12.03-12.03,12.03s-12.03-5.4-12.03-12.03v-7.24h-6.53c-6.63,0-12.03-5.4-12.03-12.03s5.4-12.03,12.03-12.03h6.53v-6.58c0-6.63,5.4-12.03,12.03-12.03s12.03,5.4,12.03,12.03v6.44h12.19c1.39,0,2.52,1.13,2.52,2.52s-1.13,2.52-2.52,2.52h-14.7c-1.39,0-2.52-1.13-2.52-2.52v-8.96c0-3.86-3.14-7-7-7s-7,3.14-7,7v9.1c0,1.39-1.13,2.52-2.52,2.52h-9.04c-3.86,0-7,3.14-7,7s3.14,7,7,7h9.04c1.39,0,2.52,1.13,2.52,2.52v9.76c0,3.86,3.14,7,7,7s7-3.14,7-7v-9.76c0-1.39,1.13-2.66,2.52-2.66h41.93c3.86,0,7-3.14,7-7s-3.14-7-7-7h-5.59c-1.19,0-2.37-.84-2.61-2.01-1.09-5.31-3.13-10.31-6.06-14.86-.03-.04-.07-.07-.1-.11-.81-1-.77-2.44.14-3.35l4.1-4.1c1.32-1.32,2.05-3.08,2.05-4.95s-.73-3.63-2.05-4.95c-2.64-2.65-7.25-2.65-9.9,0l-3.92,3.92c-.84.88-2.26,1.16-3.28.48-4.65-3.04-9.77-5.15-15.21-6.26-1.17-.24-2.01-1.27-2.01-2.47v-5.8c0-3.86-3.14-7-7-7s-7,3.14-7,7v5.59c0,.23-.03.46-.1.68-.26.9-1.04,1.75-1.95,1.94-5.25,1.09-10.21,3.12-14.74,6.02-.94.92-2.43.97-3.42.1-.05-.04-.09-.08-.14-.13l-4.09-4.09c-2.65-2.65-7.26-2.65-9.9,0-1.32,1.32-2.05,3.08-2.05,4.95s.73,3.63,2.05,4.95l3.95,3.95c.45.44.71,1.04.74,1.67.02.53-.11,1.3-.39,1.74-2.91,4.47-4.96,9.37-6.1,14.56,0,1.39-1.13,2.51-2.52,2.51h-5.8c-3.86,0-7,3.14-7,7s3.14,7,7,7h5.59c1.19,0,2.37.84,2.62,2.01,1.1,5.32,3.15,10.33,6.11,14.9.03.03.05.06.08.1.79,1,.73,2.42-.17,3.33l-4.1,4.1c-2.73,2.73-2.73,7.17,0,9.9,2.64,2.64,7.25,2.64,9.9,0l3.95-3.95c.84-.84,2.26-1.09,3.26-.44,4.51,2.97,9.46,5.05,14.71,6.2,1.18,0,2.21.83,2.45,2.01.04.19.06.38.05.57v5.73c0,3.86,3.14,7,7,7s7-3.14,7-7v-5.59c0-1.19.85-2.38,2.02-2.62,5.27-1.09,10.24-3.12,14.77-6.03.97-.95,2.5-.96,3.48-.04h0s0,0,0,0c0,0,0,0,0,0h0s0,.01,0,0c0,0,0,0,0,0h0s0,0,0,0c0,0,0,0,0,0,0,0,0,0,0,0,0,0,0,0,0,0h0s0,0,0,0,0,0,0,0l4.1,4.1c2.64,2.64,7.25,2.64,9.9,0,2.73-2.73,2.73-7.17,0-9.9l-3.95-3.95c-.98-.98-.98-2.58,0-3.56.98-.98,2.58-.98,3.56,0l3.95,3.95c2.27,2.27,3.52,5.29,3.52,8.51s-1.25,6.24-3.52,8.51c-4.54,4.55-12.47,4.55-17.01,0l-2.65-2.64c-4.12,2.47-8.54,4.3-13.19,5.47v3.74c0,6.63-5.4,12.03-12.03,12.03Z"></path></g></svg>